<mxfile host="app.diagrams.net" modified="2023-06-28T20:27:20.883Z" agent="Mozilla/5.0 (X11; Linux x86_64) AppleWebKit/537.36 (KHTML, like Gecko) Chrome/114.0.0.0 Safari/537.36 Edg/114.0.1823.58" version="21.5.2" etag="UipQsGMv0lkwN2p7YUyf" type="github">
  <diagram name="Page-1" id="2nChqG5fqzvgx2G1RSnu">
    <mxGraphModel>
      <root>
        <mxCell id="0" />
        <mxCell id="1" parent="0" />
      </root>
    </mxGraphModel>
  </diagram>
</mxfile>
